<svg width="1271" height="247" viewBox="0 0 1271 247" fill="none" xmlns="http://www.w3.org/2000/svg">
<path d="M366.673 192.709H343.703V60.3594H380.763L429.123 183.109L425.623 184.099V60.3594H448.683V192.709H411.083L362.903 70.2294L366.673 69.3294V192.709Z" fill="white"/>
<path d="M476.323 152.693V135.913H542.992L540.302 140.393C540.302 140.033 540.302 139.633 540.302 139.183C540.302 138.733 540.302 138.363 540.302 138.062C540.302 133.932 539.372 130.063 537.522 126.443C535.662 122.823 532.852 119.892 529.082 117.652C525.312 115.412 520.532 114.293 514.732 114.293C508.982 114.293 504.012 115.503 499.792 117.923C495.572 120.343 492.313 123.832 490.013 128.372C487.713 132.922 486.552 138.363 486.552 144.703C486.552 151.223 487.662 156.833 489.872 161.523C492.092 166.223 495.332 169.813 499.612 172.293C503.882 174.773 509.103 176.013 515.263 176.013C519.453 176.013 523.072 175.633 526.122 174.853C529.172 174.073 531.672 173.013 533.612 171.673C535.552 170.323 537.023 168.873 538.013 167.323C539.003 165.763 539.583 164.212 539.763 162.652H563.272C562.912 166.662 561.582 170.563 559.282 174.363C556.982 178.163 553.763 181.603 549.633 184.683C545.503 187.763 540.492 190.213 534.602 192.043C528.712 193.863 521.992 194.783 514.462 194.783C504.232 194.783 495.293 192.693 487.633 188.503C479.973 184.313 474.002 178.483 469.732 171.003C465.462 163.533 463.312 154.972 463.312 145.342C463.312 135.472 465.483 126.823 469.823 119.413C474.163 111.993 480.192 106.213 487.902 102.053C495.622 97.8925 504.472 95.8125 514.462 95.8125C524.752 95.8125 533.642 97.9025 541.152 102.092C548.662 106.282 554.443 112.103 558.513 119.553C562.583 126.993 564.612 135.663 564.612 145.533C564.612 146.793 564.582 148.133 564.522 149.573C564.462 151.013 564.373 152.053 564.253 152.713H476.323V152.693Z" fill="white"/>
<path d="M613.874 194.502C607.114 194.502 601.504 193.362 597.054 191.092C592.594 188.822 589.094 185.832 586.554 182.122C584.004 178.412 582.214 174.312 581.164 169.832C580.114 165.342 579.594 160.862 579.594 156.372C579.594 154.162 579.594 151.862 579.594 149.462C579.594 147.072 579.594 144.652 579.594 142.202V97.4219H603.284V138.512C603.284 140.672 603.284 142.732 603.284 144.702C603.284 146.672 603.284 148.532 603.284 150.262C603.284 154.512 603.794 158.442 604.804 162.062C605.814 165.682 607.694 168.592 610.414 170.802C613.134 173.022 616.974 174.122 621.944 174.122C626.664 174.122 630.734 172.732 634.144 169.952C637.554 167.172 640.204 163.662 642.084 159.412C643.964 155.162 644.904 150.862 644.904 146.492L652.984 151.882C652.984 157.682 652.084 163.142 650.294 168.252C648.504 173.372 645.894 177.902 642.484 181.842C639.074 185.782 634.964 188.892 630.144 191.132C625.344 193.382 619.914 194.502 613.874 194.502ZM644.914 192.712V97.4219H668.514V192.712H644.914Z" fill="white"/>
<path d="M686.82 192.713V97.4225H710.42V129.092L704.95 126.043C705.55 121.913 706.65 118.013 708.27 114.333C709.89 110.653 712.04 107.423 714.73 104.643C717.42 101.863 720.68 99.6925 724.51 98.1425C728.34 96.5925 732.71 95.8125 737.61 95.8125C741.5 95.8125 744.56 96.1025 746.81 96.6625C749.05 97.2325 750.44 97.6925 750.98 98.0525L746.67 119.673C746.07 119.253 744.86 118.733 743.04 118.103C741.21 117.473 738.78 117.163 735.73 117.163C730.89 117.163 726.83 117.983 723.57 119.633C720.31 121.283 717.72 123.493 715.81 126.273C713.9 129.053 712.52 132.103 711.68 135.423C710.84 138.743 710.42 142.052 710.42 145.342V192.723H686.82V192.713Z" fill="white"/>
<path d="M792.256 194.685C785.136 194.685 778.886 193.565 773.496 191.325C768.106 189.085 763.896 185.835 760.846 181.595C757.796 177.345 756.266 172.235 756.266 166.255C756.266 159.735 758.046 154.365 761.606 150.145C765.166 145.925 769.966 142.665 776.006 140.365C782.046 138.065 788.746 136.585 796.106 135.925C806.996 134.845 814.606 133.815 818.946 132.825C823.286 131.835 825.456 130.235 825.456 128.025C825.456 127.965 825.456 127.905 825.456 127.845C825.456 123.655 823.576 120.425 819.806 118.155C816.036 115.885 810.706 114.745 803.836 114.745C796.596 114.745 791.046 116.015 787.186 118.555C783.326 121.095 781.406 125.115 781.406 130.625H758.076C758.076 123.145 760.066 116.825 764.046 111.645C768.026 106.465 773.486 102.535 780.416 99.8447C787.356 97.1547 795.226 95.8047 804.016 95.8047C812.206 95.8047 819.716 97.0347 826.536 99.4847C833.356 101.935 838.826 105.645 842.956 110.615C847.076 115.585 849.146 121.765 849.146 129.195C849.146 130.455 849.146 131.705 849.146 132.965C849.146 134.225 849.146 135.475 849.146 136.735V172.625C849.146 174.895 849.216 177.125 849.366 179.315C849.516 181.505 849.826 183.455 850.306 185.195C850.896 187.105 851.616 188.725 852.456 190.035C853.296 191.355 853.946 192.255 854.426 192.725H831.096C830.676 192.305 830.096 191.485 829.346 190.255C828.596 189.035 827.926 187.615 827.326 185.995C826.726 184.195 826.276 182.275 825.986 180.205C825.686 178.145 825.536 175.855 825.536 173.335L830.206 176.565C828.406 180.215 825.676 183.405 821.996 186.125C818.316 188.845 813.936 190.955 808.846 192.445C803.766 193.935 798.236 194.685 792.256 194.685ZM797.996 176.115C802.896 176.115 807.446 175.275 811.636 173.605C815.826 171.935 819.206 169.335 821.776 165.845C824.356 162.345 825.636 157.845 825.636 152.335V139.595L831.376 146.055C827.546 147.495 822.946 148.675 817.556 149.595C812.176 150.525 806.736 151.255 801.226 151.795C794.166 152.455 788.856 153.675 785.296 155.475C781.736 157.275 779.956 160.205 779.956 164.265C779.956 168.215 781.446 171.175 784.436 173.155C787.436 175.125 791.956 176.115 797.996 176.115Z" fill="white"/>
<path d="M891.217 60.3594V192.709H867.977V60.3594H891.217Z" fill="white"/>
<path d="M1004.45 60.3594H1044.65V192.709H1022.13V75.4294L1022.67 75.6094L994.232 192.699H962.642L933.832 75.5094L934.372 75.2394V192.699H911.852V60.3594H952.052L978.882 179.789H977.362L1004.45 60.3594Z" fill="#00C1FA"/>
<path d="M1073.64 152.693V135.913H1140.3L1137.61 140.393C1137.61 140.033 1137.61 139.633 1137.61 139.183C1137.61 138.733 1137.61 138.363 1137.61 138.062C1137.61 133.932 1136.68 130.063 1134.83 126.443C1132.98 122.823 1130.17 119.892 1126.4 117.652C1122.63 115.412 1117.85 114.293 1112.05 114.293C1106.3 114.293 1101.32 115.503 1097.1 117.923C1092.88 120.343 1089.62 123.832 1087.32 128.372C1085.02 132.922 1083.86 138.363 1083.86 144.703C1083.86 151.223 1084.97 156.833 1087.18 161.523C1089.4 166.223 1092.65 169.813 1096.93 172.293C1101.2 174.773 1106.41 176.013 1112.57 176.013C1116.76 176.013 1120.38 175.633 1123.43 174.853C1126.48 174.073 1128.99 173.013 1130.93 171.673C1132.87 170.323 1134.33 168.873 1135.32 167.323C1136.31 165.763 1136.89 164.212 1137.07 162.652H1160.58C1160.22 166.662 1158.89 170.563 1156.59 174.363C1154.29 178.163 1151.07 181.603 1146.94 184.683C1142.81 187.763 1137.81 190.213 1131.92 192.043C1126.03 193.863 1119.31 194.783 1111.78 194.783C1101.55 194.783 1092.6 192.693 1084.94 188.503C1077.28 184.313 1071.32 178.483 1067.05 171.003C1062.78 163.533 1060.62 154.972 1060.62 145.342C1060.62 135.472 1062.8 126.823 1067.14 119.413C1071.48 111.993 1077.5 106.213 1085.21 102.053C1092.93 97.8925 1101.79 95.8125 1111.78 95.8125C1122.07 95.8125 1130.95 97.9025 1138.46 102.092C1145.97 106.282 1151.75 112.103 1155.82 119.553C1159.89 126.993 1161.93 135.663 1161.93 145.533C1161.93 146.793 1161.89 148.133 1161.83 149.573C1161.77 151.013 1161.68 152.053 1161.56 152.713H1073.64V152.693Z" fill="#00C1FA"/>
<path d="M1216.48 194.681C1208.65 194.681 1201.39 192.781 1194.73 188.981C1188.06 185.181 1182.72 179.571 1178.71 172.161C1174.7 164.751 1172.7 155.621 1172.7 144.791C1172.7 134.261 1174.75 125.351 1178.85 118.051C1182.94 110.751 1188.33 105.221 1195 101.451C1201.67 97.6809 1208.83 95.8009 1216.49 95.8009C1223.97 95.8009 1230.88 97.6409 1237.22 101.321C1243.56 105.001 1248.65 110.101 1252.47 116.621C1256.3 123.141 1258.22 130.621 1258.22 139.051C1258.22 139.291 1258.22 139.531 1258.22 139.771C1258.22 140.011 1258.22 140.251 1258.22 140.491L1246.55 140.761C1246.55 140.581 1246.55 140.391 1246.55 140.181C1246.55 139.971 1246.55 139.781 1246.55 139.601C1246.55 134.881 1245.37 130.751 1243.01 127.221C1240.65 123.691 1237.6 120.921 1233.86 118.921C1230.12 116.911 1226.16 115.911 1221.97 115.911C1215.09 115.911 1209.23 118.231 1204.38 122.861C1199.54 127.501 1197.11 134.811 1197.11 144.801C1197.11 154.731 1199.53 162.061 1204.38 166.781C1209.22 171.511 1215.09 173.871 1221.97 173.871C1226.33 173.871 1230.37 172.821 1234.08 170.731C1237.79 168.641 1240.79 165.751 1243.1 162.071C1245.4 158.391 1246.55 154.161 1246.55 149.371L1258.22 149.911C1258.22 158.281 1256.35 165.871 1252.61 172.651C1248.87 179.441 1243.86 184.811 1237.58 188.761C1231.29 192.711 1224.26 194.681 1216.48 194.681ZM1246.55 192.711V52.4609H1270.24V192.711H1246.55Z" fill="#00C1FA"/>
<path d="M206.623 192.262C214.163 187.942 218.813 179.923 218.813 171.243V123.622V76.0025C218.813 67.3125 214.163 59.2925 206.623 54.9825L123.213 7.2025C115.753 2.9325 106.583 2.9325 99.1234 7.2025L15.7134 54.9825C8.17344 59.3025 3.52344 67.3225 3.52344 76.0025V171.243C3.52344 179.933 8.17344 187.952 15.7134 192.262L99.1234 240.042C106.583 244.312 115.753 244.312 123.213 240.042L206.623 192.262Z" stroke="#00C1FA" stroke-width="6.8112" stroke-miterlimit="10"/>
<path d="M110.469 5.42188V244.872" stroke="#00C1FA" stroke-width="6.8112" stroke-miterlimit="10"/>
<path d="M55.8438 31.8828V215.253" stroke="#00C1FA" stroke-width="6.8112" stroke-miterlimit="10"/>
<path d="M164.469 29.6406V217.651" stroke="#00C1FA" stroke-width="6.8112" stroke-miterlimit="10"/>
<path d="M217.274 125.148L58.5938 216.078" stroke="#00C1FA" stroke-width="6.8112" stroke-miterlimit="10"/>
<path d="M164.02 32.9688L2 125.149" stroke="#00C1FA" stroke-width="6.8112" stroke-miterlimit="10"/>
<path d="M3.67188 63.4844L215.142 185.584" stroke="#00C1FA" stroke-width="6.8112" stroke-miterlimit="10"/>
<path d="M2 125.148L164.74 217.648" stroke="#00C1FA" stroke-width="6.8112" stroke-miterlimit="10"/>
<path d="M54.5312 31.1406L217.271 123.651" stroke="#00C1FA" stroke-width="6.8112" stroke-miterlimit="10"/>
<path d="M217.271 63.4844L7.53125 184.584" stroke="#00C1FA" stroke-width="6.8112" stroke-miterlimit="10"/>
</svg>
